<?xml version="1.0" standalone="no"?>
<!DOCTYPE svg PUBLIC "-//W3C//DTD SVG 20010904//EN"
 "http://www.w3.org/TR/2001/REC-SVG-20010904/DTD/svg10.dtd">
<svg version="1.0" xmlns="http://www.w3.org/2000/svg"
 width="512.000000pt" height="512.000000pt" viewBox="0 0 512.000000 512.000000"
 preserveAspectRatio="xMidYMid meet">
<metadata>
Created by potrace 1.14, written by Peter Selinger 2001-2017
</metadata>
<g transform="translate(0.000000,512.000000) scale(0.100000,-0.100000)"
fill="#000000" stroke="none">
<path d="M2686 4604 c-10 -9 -24 -27 -32 -40 l-15 -22 -34 36 c-40 44 -55 37
-59 -31 -2 -25 -11 -53 -20 -62 -9 -9 -16 -21 -16 -26 0 -17 -25 -9 -49 17
-30 32 -53 28 -58 -11 -8 -70 -10 -73 -59 -77 -37 -3 -52 1 -73 19 -23 21 -88
49 -101 44 -9 -3 -7 -36 5 -66 l12 -30 -48 0 c-56 0 -68 -8 -46 -33 15 -17 15
-19 -2 -34 -17 -14 -20 -13 -40 29 -12 24 -27 43 -34 40 -19 -6 -46 -59 -49
-95 -1 -18 -3 -32 -5 -32 -1 0 -17 9 -35 20 -18 11 -40 20 -49 20 -9 0 -19 10
-23 23 -8 34 -65 97 -87 97 -19 0 -23 -11 -20 -63 l1 -27 -36 15 c-57 24 -76
20 -68 -12 10 -43 33 -77 65 -99 31 -20 37 -34 16 -34 -6 0 -24 13 -39 29 -34
36 -65 45 -73 22 -12 -39 -132 -61 -161 -29 -13 14 -20 15 -31 7 -7 -6 -13
-15 -13 -20 0 -4 -4 -19 -10 -33 l-9 -25 -43 24 c-39 22 -43 23 -49 7 -4 -9
-1 -36 6 -59 7 -23 10 -45 6 -48 -3 -4 -7 -11 -7 -16 -1 -5 -2 -12 -3 -16 0
-5 -18 -9 -38 -9 -47 -2 -149 -52 -162 -81 -9 -20 -8 -45 4 -101 5 -20 3 -23
-15 -17 -12 4 -37 8 -56 10 -20 1 -44 11 -55 24 -20 22 -90 61 -109 61 -12 0
-13 -40 -1 -73 9 -23 8 -24 -33 -24 -61 0 -71 -9 -46 -41 30 -38 85 -72 116
-72 27 0 27 -1 -16 -37 l-43 -37 29 -13 c16 -7 45 -12 64 -13 26 0 31 -3 20
-10 -8 -5 -12 -10 -7 -10 4 0 0 -17 -8 -37 -17 -40 -14 -66 8 -57 9 3 18 -9
26 -37 7 -22 10 -43 7 -46 -3 -3 -21 2 -40 11 -52 25 -60 22 -51 -21 4 -21 7
-50 7 -65 -1 -16 3 -29 8 -29 22 -3 26 -5 50 -22 l24 -17 -32 0 c-18 0 -44 7
-58 16 -30 20 -36 15 -36 -30 0 -21 -4 -33 -11 -31 -7 2 -26 6 -44 9 -32 5
-32 5 -22 -22 12 -33 58 -82 76 -82 7 0 13 -4 13 -10 0 -16 -26 -12 -41 6 -26
32 -52 33 -81 4 -33 -34 -95 -46 -119 -24 -16 14 -18 14 -24 -7 -4 -12 -9 -29
-10 -38 -2 -9 -4 -17 -4 -19 -1 -1 -14 4 -31 13 -44 23 -53 20 -46 -17 13 -66
15 -98 6 -99 -6 -1 -14 -3 -20 -4 -5 -1 -16 -3 -23 -4 -8 0 -35 -15 -61 -33
-46 -30 -48 -33 -44 -72 3 -23 8 -48 11 -56 11 -23 -80 -13 -115 12 -15 10
-44 22 -64 25 -35 6 -36 5 -29 -18 4 -13 11 -29 16 -35 12 -15 1 -24 -30 -24
-51 0 -55 -15 -15 -49 21 -17 47 -32 56 -32 10 -1 23 -3 28 -4 6 -1 13 -3 16
-4 4 0 -5 -10 -20 -22 -41 -32 -34 -49 20 -49 40 0 45 -2 39 -17 -5 -10 -10
-33 -13 -51 -4 -27 -1 -33 13 -30 11 2 21 -8 30 -29 16 -37 8 -41 -38 -24 -32
13 -37 6 -25 -32 5 -18 10 -41 11 -52 1 -11 9 -20 17 -21 8 0 24 -4 34 -9 17
-7 14 -10 -19 -19 -52 -15 -55 -33 -7 -54 l39 -18 -33 -34 c-40 -40 -41 -46
-14 -53 34 -9 83 3 117 29 51 39 51 28 0 -18 -26 -24 -50 -56 -53 -72 -7 -28
-6 -29 22 -22 16 4 42 14 58 22 38 18 37 18 26 -12 -6 -14 -10 -29 -10 -34 0
-17 71 -7 83 11 16 23 82 30 82 9 1 -8 7 -13 15 -11 8 2 24 6 34 9 12 3 17 1
12 -6 -7 -11 41 -1 65 13 8 5 9 0 4 -16 -18 -64 -18 -61 7 -54 12 4 40 20 60
36 l37 29 12 -35 c14 -39 29 -34 49 16 8 19 28 38 54 51 l41 20 -41 -38 c-39
-37 -62 -79 -50 -91 14 -15 82 12 120 47 49 46 67 43 31 -5 -14 -17 -25 -40
-25 -50 0 -15 6 -17 37 -12 21 4 49 15 63 26 26 18 26 18 53 -1 33 -24 41 -19
39 27 -1 33 10 46 23 25 3 -5 19 -7 35 -3 17 3 36 0 44 -6 10 -9 20 -9 33 -2
15 7 22 5 32 -12 14 -21 14 -21 37 8 13 17 24 26 24 21 0 -16 40 37 46 61 8
30 18 29 64 -8 46 -37 62 -31 56 22 -6 45 -1 46 52 19 22 -11 58 -22 81 -23
31 -2 45 -9 58 -27 9 -14 43 -52 75 -85 32 -33 76 -84 98 -113 47 -61 84 -86
199 -133 69 -28 95 -45 140 -92 31 -32 80 -74 108 -93 52 -34 81 -77 97 -145
3 -15 6 -121 7 -236 1 -191 0 -213 -19 -256 -59 -133 -150 -220 -252 -242 -48
-10 -64 -24 -48 -42 16 -20 63 -43 87 -43 11 0 22 -9 26 -20 11 -35 83 -37
158 -5 14 6 17 2 17 -18 0 -37 16 -42 51 -16 28 19 36 21 63 11 61 -22 93 -14
87 21 -1 5 6 6 16 3 23 -6 124 -20 141 -19 36 2 42 4 42 19 0 8 3 13 8 11 4
-3 38 1 77 8 38 7 74 11 79 8 5 -3 7 0 4 8 -2 7 -38 25 -79 39 -160 57 -200
100 -214 235 -8 75 -12 109 -23 165 -10 54 -9 187 2 250 13 70 69 180 119 232
46 47 133 107 242 169 128 71 301 210 289 231 -4 6 -2 8 3 5 6 -4 31 16 56 43
25 28 44 50 41 50 -3 0 2 7 10 16 9 8 14 20 11 25 -4 5 -2 9 4 9 16 0 22 -18
9 -23 -8 -4 -9 -6 -2 -6 6 -1 17 6 24 14 14 17 35 21 25 5 -4 -6 6 -5 22 2 48
21 108 65 147 108 l38 42 21 -20 c12 -10 37 -24 56 -31 42 -14 41 -14 35 4 -5
11 0 12 25 5 34 -10 39 -1 22 43 -14 35 12 43 48 16 l29 -21 -24 -35 c-13 -20
-24 -45 -24 -55 0 -20 16 -21 63 -2 11 4 21 -6 32 -30 23 -49 32 -52 50 -17
18 35 20 84 4 113 -9 16 -8 19 3 16 7 -3 14 -13 16 -24 9 -60 36 -106 79 -135
24 -17 47 -28 50 -25 6 5 -8 64 -22 99 -7 17 -5 17 26 -2 44 -27 53 -27 88 8
l31 30 19 -45 c21 -47 35 -55 46 -26 6 15 8 15 25 -5 24 -30 36 -29 44 2 6 25
7 25 36 10 l30 -16 0 31 c0 17 -5 40 -10 51 -10 18 -8 19 31 13 31 -5 40 -4
35 4 -9 15 -1 15 26 1 20 -11 21 -9 15 30 -3 23 -16 56 -29 74 -28 36 -39 62
-44 94 -1 13 -6 33 -10 45 -6 19 -4 21 7 11 8 -6 16 -24 17 -38 3 -44 32 -93
73 -126 33 -26 40 -28 45 -15 10 26 -5 83 -30 113 l-24 28 35 1 c18 1 36 4 39
7 10 10 -14 42 -41 57 l-26 14 28 15 c15 8 34 14 41 12 7 -1 18 11 24 26 l11
29 45 -23 c47 -24 72 -29 72 -14 0 18 -24 76 -34 83 -6 4 10 7 35 6 26 0 52 3
58 6 15 10 1 33 -33 55 l-27 18 35 21 c54 32 47 44 -34 56 -14 2 -40 -3 -59
-10 -18 -8 -35 -14 -36 -14 -2 0 3 14 12 31 14 29 14 85 0 119 -5 10 8 24 40
43 42 26 45 30 29 39 -29 16 -98 17 -127 3 -22 -12 -27 -11 -36 5 -10 16 -7
18 27 24 46 7 57 20 35 42 -14 15 -14 18 0 33 8 10 15 20 15 24 0 12 -74 29
-106 24 -32 -5 -33 -5 -23 19 21 58 -6 161 -43 158 -10 -1 -21 10 -27 28 -9
25 -12 27 -30 16 -11 -6 -26 -23 -33 -36 -16 -31 -48 -43 -66 -26 -7 8 -27 14
-44 14 -24 0 -28 3 -20 13 7 8 8 24 3 43 -8 30 -11 31 -47 20 -17 -5 -23 -2
-28 19 -6 24 -8 24 -30 10 -33 -22 -56 -10 -53 29 2 34 7 33 -87 19 -38 -5
-39 -4 -23 11 26 26 21 39 -13 33 -27 -6 -29 -5 -22 16 5 12 7 28 6 35 -1 6
-2 20 -3 30 -1 9 -6 24 -11 32 -8 12 -14 10 -39 -14 l-30 -29 -12 26 c-23 50
-59 42 -59 -14 0 -15 -11 -35 -27 -49 l-26 -23 -28 34 -28 34 -15 -35 c-8 -19
-15 -29 -16 -21 0 8 -10 25 -22 38 l-21 23 34 1 c92 2 114 18 73 54 -16 14
-31 25 -34 25 -3 0 -11 4 -19 9 -10 7 -4 17 25 44 22 19 35 39 31 43 -13 13
-107 14 -135 1 -15 -6 -36 -18 -46 -26 -18 -15 -19 -15 -11 14 14 48 7 110
-16 149 -11 20 -16 36 -10 36 16 0 81 60 81 76 0 26 -87 21 -147 -8 -38 -18
-44 -18 -58 -5 -21 21 -19 24 18 31 19 3 42 13 53 21 18 15 18 16 -8 38 l-27
22 20 25 c20 23 20 24 2 31 -41 15 -97 16 -128 3 l-34 -14 9 30 c18 61 -8 138
-61 186 -16 14 -23 15 -26 7 -6 -17 -23 -17 -23 0 0 7 -7 22 -15 33 -15 18
-16 18 -40 -11 -14 -16 -25 -35 -25 -42 0 -6 -14 -22 -31 -34 -25 -18 -33 -19
-39 -8 -6 9 -25 13 -56 11 -45 -2 -46 -1 -30 16 18 20 22 37 6 27 -9 -6 -14
14 -11 43 2 16 -24 15 -58 -3 -27 -13 -29 -13 -39 10 -14 30 -22 31 -45 5 -20
-23 -26 -24 -49 -6 -11 8 -16 22 -13 35 9 45 -3 52 -48 29 -23 -12 -45 -21
-49 -20 -4 1 -19 -3 -32 -8 l-25 -9 19 34 c21 38 14 44 -32 26 -22 -8 -23 -7
-22 33 1 22 -7 58 -16 79 -16 36 -18 37 -34 21z m-457 -360 c2 -2 2 -7 -2 -10
-3 -3 -16 2 -29 11 l-23 17 25 -7 c14 -4 27 -9 29 -11z m1061 -4 c0 -5 -4 -10
-10 -10 -5 0 -10 5 -10 10 0 6 5 10 10 10 6 0 10 -4 10 -10z m-1410 -55 c0 -8
-4 -15 -10 -15 -5 0 -7 7 -4 15 4 8 8 15 10 15 2 0 4 -7 4 -15z m1679 -388 c8
-11 4 -13 -22 -9 -27 4 -29 6 -12 13 11 4 21 8 21 8 1 1 6 -5 13 -12z m-2479
-99 c0 -4 -10 -4 -22 1 -13 4 -29 6 -35 4 -16 -6 -17 4 -1 21 11 11 17 11 35
-3 12 -9 23 -19 23 -23z m2570 -4 c0 -18 -8 -18 -26 0 -10 11 -11 15 -1 19 16
6 27 -1 27 -19z m50 -350 c0 -2 -7 -4 -15 -4 -8 0 -15 4 -15 10 0 5 7 7 15 4
8 -4 15 -8 15 -10z m1021 -531 c12 -16 12 -17 -2 -6 -9 7 -20 9 -24 5 -5 -4
-5 -1 -1 6 9 16 11 15 27 -5z m57 -91 c6 -18 -15 -14 -22 4 -4 10 -1 14 6 12
6 -2 14 -10 16 -16z m-4409 -69 c2 -2 -10 -3 -28 -3 -27 0 -30 2 -19 14 10 11
17 11 28 3 8 -6 17 -13 19 -14z m2161 -27 c0 -3 -4 -8 -10 -11 -5 -3 -10 -1
-10 4 0 6 5 11 10 11 6 0 10 -2 10 -4z m-273 -73 c-9 -9 -20 -13 -24 -9 -4 4
-1 11 7 16 25 16 35 11 17 -7z m343 -7 c0 -2 -9 -6 -20 -9 -11 -3 -18 -1 -14
4 5 9 34 13 34 5z m-60 -31 c-7 -8 -22 -15 -34 -14 -18 0 -16 3 9 14 39 18 40
18 25 0z m-110 -24 c0 -10 7 -24 15 -31 8 -7 15 -19 15 -27 0 -12 -2 -12 -15
1 -25 25 -47 94 -25 81 6 -3 10 -14 10 -24z m540 -20 c0 -4 -9 -7 -20 -8 -19
-2 -26 8 -14 20 7 7 34 -2 34 -12z m1521 -2 c-14 -6 -28 -6 -33 -1 -5 5 5 9
24 10 31 0 31 -1 9 -9z m-1900 -52 c-7 -7 -12 -5 -17 7 -4 11 -1 21 7 27 17
11 26 -18 10 -34z m-364 7 c-7 -7 -37 7 -37 17 0 6 9 5 21 -1 11 -7 19 -14 16
-16z m342 -37 l40 -1 21 -71 c12 -38 30 -93 41 -121 22 -56 21 -51 20 -179 -1
-49 1 -101 4 -115 7 -27 7 -96 0 -147 -2 -18 -15 -49 -29 -70 l-25 -37 1 60
c0 48 -8 81 -46 176 -25 64 -49 139 -52 165 -6 47 -36 166 -54 211 -8 17 -6
22 6 22 8 0 12 5 9 10 -3 6 5 10 19 10 31 0 27 17 -15 72 -35 45 -36 53 -5 33
13 -9 42 -17 65 -18z m137 1 c17 -51 19 -93 6 -148 -8 -34 -8 -34 -34 50 -25
78 -26 86 -11 102 21 24 30 23 39 -4z m1838 -3 c3 -8 1 -15 -3 -15 -5 0 -11 7
-15 15 -3 8 -1 15 3 15 5 0 11 -7 15 -15z m-118 -27 c5 -8 2 -9 -10 -5 -10 4
-21 7 -25 7 -4 0 -8 7 -8 14 0 11 5 12 18 5 10 -5 21 -14 25 -21z m-2286 -4
c0 -8 -4 -12 -10 -9 -5 3 -10 10 -10 16 0 5 5 9 10 9 6 0 10 -7 10 -16z m670
6 c0 -6 15 -9 35 -7 35 4 42 -1 26 -18 -5 -6 -12 -20 -15 -32 -6 -19 -4 -21
26 -16 18 3 45 11 61 19 22 12 28 12 31 2 2 -7 7 -22 12 -33 10 -28 11 -35 2
-80 -4 -22 -10 -76 -13 -120 -14 -201 -15 -207 -52 -278 -20 -38 -55 -93 -78
-122 l-41 -53 -1 82 c-1 44 -4 115 -7 156 -2 41 -1 91 3 110 5 22 1 63 -9 112
-9 42 -15 85 -12 95 2 10 6 57 9 106 3 48 9 87 14 87 5 0 9 -5 9 -10z m1295
-9 c3 -5 1 -12 -5 -16 -5 -3 -10 1 -10 9 0 18 6 21 15 7z m245 -51 c0 -4 -9
-10 -19 -13 -14 -3 -20 2 -23 18 -4 21 -3 22 19 12 12 -5 23 -13 23 -17z
m-1277 -2 c-13 -12 -26 -18 -30 -14 -4 4 1 14 11 22 31 22 43 17 19 -8z m1412
12 c3 -5 1 -10 -4 -10 -6 0 -11 5 -11 10 0 6 2 10 4 10 3 0 8 -4 11 -10z
m-1275 -50 c0 -5 -10 -15 -22 -21 -23 -12 -57 -49 -58 -61 0 -5 16 -8 36 -8
l37 0 -6 -49 c-3 -28 -18 -81 -33 -118 -30 -77 -123 -225 -136 -217 -5 3 -6 9
-4 13 8 13 16 64 21 141 9 134 16 194 27 237 9 37 15 44 47 53 20 6 45 17 55
25 23 17 36 19 36 5z m1070 -14 c0 -2 -8 -10 -17 -17 -16 -13 -17 -12 -4 4 13
16 21 21 21 13z m-170 -16 c0 -5 -4 -10 -10 -10 -5 0 -10 5 -10 10 0 6 5 10
10 10 6 0 10 -4 10 -10z m-2150 -4 c0 -11 -19 -15 -25 -6 -3 5 1 10 9 10 9 0
16 -2 16 -4z m1720 -51 l31 -45 -48 -30 c-26 -16 -55 -30 -63 -31 -8 -1 -26
-3 -40 -4 l-24 -2 23 18 c25 20 54 65 72 112 6 15 13 27 14 27 2 0 18 -20 35
-45z m89 19 c-16 -20 -28 -17 -22 5 3 12 11 17 19 14 11 -4 12 -9 3 -19z
m-1487 -129 c-2 -55 -5 -101 -7 -103 -2 -2 -15 34 -30 79 l-26 84 22 43 c21
43 21 43 33 20 8 -15 11 -58 8 -123z m193 72 c4 -23 9 -46 10 -52 1 -5 5 -35
9 -65 4 -30 18 -80 31 -110 25 -55 41 -118 39 -155 -1 -41 -17 -95 -28 -95
-20 0 -154 130 -192 187 l-37 56 6 101 c3 66 11 113 22 134 16 31 18 32 34 18
27 -24 41 -19 41 13 0 29 1 30 29 20 23 -8 30 -18 36 -52z m-613 -49 c4 -35 3
-37 -14 -21 -10 9 -18 26 -18 37 0 12 -7 32 -16 44 -8 12 -12 27 -9 33 11 17
52 -51 57 -93z m156 74 c-1 -4 8 -26 20 -49 12 -22 24 -70 28 -105 3 -34 12
-96 20 -137 9 -40 13 -76 10 -79 -7 -6 -96 83 -121 122 -21 31 -56 164 -45
171 4 3 22 -12 39 -32 17 -20 34 -34 37 -30 18 17 15 86 -5 126 -22 42 -22 42
-2 31 12 -6 20 -14 19 -18z m1262 5 c0 -7 -7 -21 -16 -32 -14 -19 -14 -19 -10
5 2 14 5 31 5 38 1 16 21 5 21 -11z m138 17 c12 -4 22 -12 22 -19 0 -8 9 -10
25 -7 18 3 27 -1 32 -14 3 -11 10 -21 15 -24 4 -3 -13 -28 -38 -55 -25 -28
-74 -81 -108 -119 -94 -106 -99 -110 -157 -126 l-28 -8 28 51 c15 29 36 77 46
107 10 30 30 78 45 105 68 124 66 122 118 109z m902 -10 c0 -8 -5 -12 -10 -9
-6 4 -8 11 -5 16 9 14 15 11 15 -7z m-3534 -19 c-10 -8 -23 -12 -28 -9 -14 9
2 24 25 24 21 -1 21 -1 3 -15z m1371 -116 c12 -4 24 -18 28 -31 13 -41 102
-215 136 -265 18 -26 48 -64 65 -83 37 -39 36 -54 0 -24 -13 10 -49 39 -80 64
-30 25 -77 54 -103 64 -26 11 -51 24 -56 30 -7 12 -27 77 -32 111 -2 11 -7 38
-10 60 -4 22 -9 53 -12 68 -5 31 -3 31 64 6z"/>
</g>
</svg>
